<svg aria-hidden="true" style="position: absolute; width: 0; height: 0; overflow: hidden;" version="1.1"
    xmlns="http://www.w3.org/2000/svg" xmlns:xlink="http://www.w3.org/1999/xlink">
    <defs>
        <symbol id="close" viewBox="0 0 32 32">
            <path fill="none" stroke="#fff" style="stroke: var(--color1, #fff)" stroke-linejoin="miter"
                stroke-linecap="round" stroke-miterlimit="4" stroke-width="3.5556"
                d="M30.222 30.222l-28.444-28.444M30.222 1.778l-28.444 28.444"></path>
        </symbol>
        <symbol id="burger" viewBox="0 0 32 32">
            <path
                d="M32 26.667h-14.222c-0.982 0-1.778-0.796-1.778-1.778s0.796-1.778 1.778-1.778h14.222v3.556zM32 17.778h-30.222c-0.982 0-1.778-0.796-1.778-1.778s0.796-1.778 1.778-1.778h30.222v3.556zM32 8.889h-30.222c-0.982 0-1.778-0.796-1.778-1.778s0.796-1.778 1.778-1.778h30.222v3.556z">
            </path>
        </symbol>
        <symbol id="diskord" viewBox="0 0 32 32">
            <path fill="#1b1b1b" style="fill: var(--color2, #1b1b1b)"
                d="M32 16c0 8.837-7.163 16-16 16s-16-7.163-16-16c0-8.837 7.163-16 16-16s16 7.163 16 16z"></path>
            <path fill="#fff" style="fill: var(--color1, #fff)"
                d="M22.078 11.551c-1.038-0.416-2.132-0.714-3.257-0.884-0.010-0.002-0.021-0-0.030 0.004s-0.017 0.010-0.022 0.018c-0.141 0.219-0.297 0.505-0.406 0.729-1.212-0.161-2.446-0.161-3.658 0-0.121-0.249-0.259-0.493-0.412-0.729-0.005-0.008-0.013-0.014-0.022-0.018s-0.020-0.005-0.030-0.004c-1.125 0.17-2.22 0.467-3.257 0.884-0.009 0.003-0.016 0.009-0.021 0.016-2.074 2.71-2.643 5.354-2.364 7.965 0.001 0.012 0.010 0.024 0.021 0.032 1.208 0.782 2.559 1.38 3.995 1.767 0.010 0.003 0.021 0.003 0.031-0s0.019-0.009 0.025-0.016c0.308-0.367 0.582-0.755 0.818-1.162 0.005-0.008 0.007-0.018 0.005-0.027s-0.007-0.018-0.015-0.024c-0.005-0.004-0.011-0.007-0.018-0.010-0.431-0.145-0.848-0.319-1.248-0.52-0.011-0.006-0.019-0.015-0.023-0.025s-0.003-0.022 0.003-0.032c0.003-0.006 0.009-0.012 0.015-0.017 0.084-0.055 0.168-0.113 0.248-0.171 0.007-0.005 0.016-0.008 0.025-0.009s0.018 0 0.026 0.003c2.619 1.046 5.454 1.046 8.041 0 0.009-0.003 0.018-0.004 0.028-0.003s0.018 0.004 0.026 0.009c0.080 0.058 0.164 0.115 0.248 0.171 0.007 0.004 0.012 0.010 0.016 0.017s0.005 0.014 0.005 0.021c-0 0.007-0.003 0.015-0.007 0.021s-0.010 0.012-0.018 0.015c-0.399 0.203-0.817 0.377-1.249 0.519-0.007 0.002-0.013 0.006-0.018 0.010s-0.009 0.010-0.012 0.016c-0.002 0.006-0.003 0.012-0.003 0.018s0.002 0.012 0.006 0.018c0.24 0.407 0.515 0.795 0.817 1.162 0.006 0.008 0.015 0.013 0.025 0.016s0.021 0.003 0.031 0c1.439-0.386 2.792-0.983 4.001-1.767 0.006-0.004 0.011-0.008 0.015-0.014s0.006-0.012 0.006-0.018c0.334-3.018-0.559-5.64-2.366-7.964-0.002-0.004-0.004-0.007-0.008-0.010s-0.007-0.005-0.012-0.007zM13.88 17.942c-0.789 0-1.438-0.633-1.438-1.41s0.637-1.411 1.438-1.411c0.807 0 1.45 0.639 1.438 1.411 0 0.777-0.637 1.41-1.438 1.41zM19.196 17.942c-0.788 0-1.438-0.633-1.438-1.41s0.637-1.411 1.438-1.411c0.807 0 1.451 0.639 1.438 1.411 0 0.777-0.631 1.41-1.438 1.41z">
            </path>
        </symbol>
        <symbol id="instagram" viewBox="0 0 32 32">
            <path fill="#fff" style="fill: var(--color1, #fff)"
                d="M32 16c0 8.837-7.163 16-16 16s-16-7.163-16-16c0-8.837 7.163-16 16-16s16 7.163 16 16z"></path>
            <path fill="#000" style="fill: var(--color3, #000)"
                d="M13.235 7.515c0.853-0.039 1.125-0.048 3.298-0.048s2.445 0.009 3.297 0.048c0.852 0.039 1.434 0.175 1.943 0.372 0.533 0.201 1.017 0.516 1.417 0.924 0.407 0.399 0.721 0.882 0.922 1.416 0.198 0.509 0.333 1.091 0.372 1.942 0.039 0.854 0.048 1.127 0.048 3.299s-0.009 2.445-0.048 3.298c-0.038 0.851-0.174 1.433-0.372 1.942-0.201 0.534-0.515 1.018-0.922 1.418-0.4 0.407-0.884 0.721-1.417 0.922-0.509 0.198-1.091 0.333-1.942 0.372-0.854 0.039-1.126 0.048-3.299 0.048s-2.445-0.009-3.298-0.048c-0.851-0.038-1.433-0.174-1.942-0.372-0.534-0.201-1.018-0.515-1.417-0.922-0.407-0.4-0.722-0.883-0.923-1.417-0.197-0.509-0.332-1.091-0.372-1.942-0.039-0.855-0.048-1.127-0.048-3.299s0.009-2.445 0.048-3.297 0.175-1.434 0.372-1.943c0.201-0.534 0.516-1.017 0.924-1.417 0.399-0.407 0.883-0.722 1.416-0.923 0.509-0.197 1.091-0.332 1.942-0.372h0.001zM19.766 8.955c-0.844-0.039-1.097-0.047-3.233-0.047s-2.389 0.008-3.233 0.047c-0.78 0.036-1.204 0.166-1.486 0.276-0.373 0.145-0.64 0.318-0.92 0.598-0.265 0.258-0.47 0.573-0.598 0.92-0.11 0.282-0.24 0.705-0.276 1.486-0.039 0.844-0.047 1.097-0.047 3.233s0.008 2.389 0.047 3.233c0.036 0.78 0.166 1.204 0.276 1.486 0.128 0.347 0.332 0.662 0.598 0.92 0.258 0.265 0.573 0.47 0.92 0.598 0.282 0.11 0.705 0.24 1.486 0.276 0.844 0.038 1.096 0.047 3.233 0.047s2.389-0.008 3.233-0.047c0.78-0.036 1.204-0.166 1.486-0.276 0.373-0.145 0.64-0.318 0.92-0.598 0.265-0.258 0.47-0.573 0.598-0.92 0.11-0.282 0.24-0.705 0.276-1.486 0.038-0.844 0.047-1.097 0.047-3.233s-0.008-2.389-0.047-3.233c-0.036-0.78-0.166-1.204-0.276-1.486-0.145-0.373-0.318-0.64-0.598-0.92-0.258-0.265-0.573-0.47-0.92-0.598-0.282-0.11-0.705-0.24-1.486-0.276zM15.511 17.933c0.571 0.238 1.206 0.27 1.798 0.091s1.103-0.558 1.446-1.072c0.343-0.514 0.498-1.131 0.437-1.746s-0.334-1.19-0.772-1.626c-0.279-0.279-0.617-0.492-0.988-0.625s-0.768-0.182-1.161-0.143c-0.393 0.039-0.772 0.164-1.11 0.367s-0.628 0.478-0.847 0.806c-0.219 0.328-0.363 0.701-0.421 1.091s-0.029 0.789 0.086 1.166 0.311 0.725 0.576 1.018c0.265 0.292 0.591 0.523 0.956 0.674zM13.626 12.559c0.382-0.382 0.835-0.685 1.334-0.891s1.034-0.313 1.574-0.313 1.075 0.106 1.574 0.313c0.499 0.207 0.952 0.51 1.334 0.891s0.685 0.835 0.891 1.334c0.207 0.499 0.313 1.034 0.313 1.574s-0.106 1.075-0.313 1.574c-0.207 0.499-0.51 0.952-0.891 1.334-0.771 0.771-1.817 1.204-2.908 1.204s-2.137-0.433-2.908-1.204c-0.771-0.771-1.204-1.817-1.204-2.908s0.433-2.137 1.204-2.908zM21.557 11.967c0.095-0.089 0.17-0.197 0.223-0.316s0.080-0.247 0.082-0.377c0.002-0.13-0.022-0.259-0.071-0.38s-0.122-0.23-0.213-0.322c-0.092-0.092-0.201-0.165-0.322-0.213s-0.25-0.073-0.38-0.071c-0.13 0.002-0.258 0.030-0.378 0.082s-0.226 0.128-0.316 0.223c-0.174 0.184-0.269 0.428-0.265 0.681s0.106 0.495 0.285 0.673 0.42 0.281 0.673 0.285c0.253 0.004 0.497-0.091 0.681-0.265z">
            </path>
        </symbol>
        <symbol id="twitter" viewBox="0 0 32 32">
            <path fill="#1b1b1b" style="fill: var(--color2, #1b1b1b)"
                d="M32 16c0 8.837-7.163 16-16 16s-16-7.163-16-16c0-8.837 7.163-16 16-16s16 7.163 16 16z"></path>
            <path fill="#fff" style="fill: var(--color1, #fff)"
                d="M24.533 11.121c-0.588 0.25-1.229 0.43-1.888 0.5 0.685-0.401 1.198-1.033 1.442-1.78-0.643 0.376-1.346 0.64-2.081 0.78-0.307-0.323-0.678-0.58-1.090-0.756s-0.857-0.266-1.306-0.265c-1.817 0-3.279 1.45-3.279 3.23 0 0.25 0.031 0.5 0.081 0.74-2.721-0.14-5.147-1.42-6.761-3.38-0.294 0.494-0.448 1.057-0.446 1.63 0 1.121 0.579 2.109 1.461 2.691-0.52-0.020-1.028-0.161-1.483-0.411v0.040c0 1.57 1.127 2.87 2.629 3.17-0.282 0.072-0.572 0.109-0.863 0.11-0.213 0-0.415-0.021-0.619-0.049 0.415 1.28 1.625 2.21 3.065 2.24-1.127 0.869-2.538 1.38-4.071 1.38-0.275 0-0.529-0.009-0.792-0.040 1.454 0.918 3.178 1.449 5.036 1.449 6.030 0 9.33-4.919 9.33-9.189 0-0.14 0-0.28-0.010-0.42 0.638-0.46 1.198-1.030 1.644-1.67z">
            </path>
        </symbol>
        <symbol id="location" viewBox="0 0 32 32">
            <path fill="#fff" style="fill: var(--color1, #fff)"
                d="M16 2c-2.916 0.003-5.712 1.163-7.774 3.226s-3.222 4.858-3.226 7.774c-0.003 2.383 0.775 4.702 2.216 6.6 0 0 0.3 0.395 0.349 0.452l8.435 9.948 8.439-9.953c0.044-0.053 0.345-0.447 0.345-0.447l0.001-0.003c1.44-1.897 2.218-4.215 2.215-6.597-0.003-2.916-1.163-5.712-3.226-7.774s-4.858-3.222-7.774-3.226zM16 17c-0.791 0-1.565-0.235-2.222-0.674s-1.171-1.064-1.473-1.795c-0.303-0.731-0.382-1.535-0.228-2.311s0.535-1.489 1.095-2.048c0.559-0.559 1.272-0.94 2.048-1.095s1.58-0.075 2.311 0.228c0.731 0.303 1.356 0.815 1.795 1.473s0.674 1.431 0.674 2.222c-0.001 1.060-0.423 2.077-1.173 2.827s-1.766 1.172-2.827 1.173z">
            </path>
        </symbol>
        <symbol id="email" viewBox="0 0 32 32">
            <path fill="#fff" style="fill: var(--color1, #fff)"
                d="M29.333 5.333h-26.667v21.333h26.667v-21.333zM26.667 10.667l-10.667 6.667-10.667-6.667v-2.667l10.667 6.667 10.667-6.667v2.667z">
            </path>
        </symbol>
        <symbol id="phone" viewBox="0 0 32 32">
            <path fill="#fff" style="fill: var(--color1, #fff)"
                d="M26.667 14.665h2.667c0-6.84-5.164-11.999-12.013-11.999v2.667c5.416 0 9.347 3.924 9.347 9.332z">
            </path>
            <path fill="#fff" style="fill: var(--color1, #fff)"
                d="M17.333 10.667c2.804 0 4 1.196 4 4h2.667c0-4.3-2.367-6.667-6.667-6.667v2.667zM21.896 17.924c-0.256-0.233-0.593-0.357-0.939-0.346s-0.674 0.155-0.916 0.404l-3.191 3.281c-0.768-0.147-2.312-0.628-3.901-2.213-1.589-1.591-2.071-3.139-2.213-3.901l3.279-3.192c0.249-0.241 0.393-0.57 0.404-0.916s-0.114-0.683-0.347-0.939l-4.927-5.417c-0.233-0.257-0.557-0.413-0.904-0.434s-0.687 0.093-0.951 0.318l-2.893 2.481c-0.231 0.231-0.368 0.539-0.387 0.865-0.020 0.333-0.401 8.229 5.721 14.355 5.341 5.34 12.032 5.731 13.875 5.731 0.269 0 0.435-0.008 0.479-0.011 0.326-0.018 0.634-0.156 0.864-0.388l2.48-2.895c0.226-0.263 0.34-0.604 0.319-0.951s-0.177-0.671-0.434-0.904l-5.419-4.928z">
            </path>
        </symbol>
        <symbol id="cart" viewBox="0 0 32 32">
            <path
                d="M0.842 1.751c0-0.238 0.095-0.467 0.263-0.635s0.397-0.263 0.635-0.263h2.695c0.2 0 0.395 0.067 0.553 0.19s0.27 0.296 0.318 0.49l0.728 2.912h20.858c0.132 0 0.262 0.029 0.382 0.085s0.225 0.138 0.309 0.239 0.145 0.22 0.178 0.348c0.033 0.128 0.038 0.261 0.013 0.391l-2.695 14.372c-0.038 0.206-0.148 0.392-0.309 0.525s-0.364 0.207-0.573 0.207h-16.169c-0.209-0-0.412-0.074-0.573-0.207s-0.27-0.32-0.309-0.525l-2.693-14.345-0.719-2.887h-1.994c-0.238 0-0.467-0.095-0.635-0.263s-0.263-0.397-0.263-0.635zM6.415 6.242l2.359 12.575h14.678l2.359-12.575h-19.396zM9.825 20.614c-0.953 0-1.867 0.378-2.541 1.052s-1.052 1.588-1.052 2.541c0 0.953 0.379 1.867 1.052 2.541s1.588 1.052 2.541 1.052c0.953 0 1.867-0.378 2.541-1.052s1.052-1.588 1.052-2.541c0-0.953-0.379-1.867-1.052-2.541s-1.588-1.052-2.541-1.052zM22.401 20.614c-0.953 0-1.867 0.378-2.541 1.052s-1.052 1.588-1.052 2.541 0.379 1.867 1.052 2.541c0.674 0.674 1.588 1.052 2.541 1.052s1.867-0.378 2.541-1.052c0.674-0.674 1.052-1.588 1.052-2.541s-0.379-1.867-1.052-2.541c-0.674-0.674-1.588-1.052-2.541-1.052zM9.825 22.41c0.476 0 0.933 0.189 1.27 0.526s0.526 0.794 0.526 1.27-0.189 0.933-0.526 1.27c-0.337 0.337-0.794 0.526-1.27 0.526s-0.933-0.189-1.27-0.526c-0.337-0.337-0.526-0.794-0.526-1.27s0.189-0.933 0.526-1.27c0.337-0.337 0.794-0.526 1.27-0.526zM22.401 22.41c0.476 0 0.933 0.189 1.27 0.526s0.526 0.794 0.526 1.27-0.189 0.933-0.526 1.27c-0.337 0.337-0.794 0.526-1.27 0.526s-0.933-0.189-1.27-0.526c-0.337-0.337-0.526-0.794-0.526-1.27s0.189-0.933 0.526-1.27c0.337-0.337 0.794-0.526 1.27-0.526z">
            </path>
        </symbol>
        <symbol id="arrow" viewBox="0 0 32 32">
            <path
                d="M14.586 24.719c0.781 0.781 2.047 0.781 2.828 0l12.728-12.728c0.781-0.781 0.781-2.047 0-2.828s-2.047-0.781-2.829 0l-11.314 11.314-11.314-11.314c-0.781-0.781-2.047-0.781-2.828 0s-0.781 2.047 0 2.828l12.728 12.728zM14 20.555v2.75h4v-2.75h-4z">
            </path>
        </symbol>
        <symbol id="user" viewBox="0 0 32 32">
            <path stroke-linejoin="round" stroke-linecap="round" stroke-miterlimit="4" stroke-width="0.4233"
                d="M23.137 7.962c0 3.955-3.195 7.161-7.137 7.161s-7.137-3.206-7.137-7.161c0-3.955 3.195-7.161 7.137-7.161s7.137 3.206 7.137 7.161z">
            </path>
            <path stroke-linejoin="round" stroke-linecap="round" stroke-miterlimit="4" stroke-width="0.4233"
                d="M0.846 31.188h30.308M0.846 31.188c-0.029-0.348-0.046-0.753-0.046-1.162v0c0-8.231 6.805-14.903 15.2-14.903v0c8.395 0 15.2 6.672 15.2 14.903v0c0 0.409-0.017 0.814-0.050 1.215l0.003-0.053">
            </path>
        </symbol>
    </defs>
</svg>